<svg id="Layer_1" data-name="Layer 1" xmlns="http://www.w3.org/2000/svg" viewBox="0 0 595.28 123.91">
    <defs>
        <style>
            .cls-1 {
                fill: #f9ed32;
                animation: kedip 2s infinite;
                opacity: 0;
            }

            .cls-2 {
                fill: #fff;
            }

            .cls-4 {
                fill: #231f20;
                animation: kursor 1s step-start infinite;
                opacity: 0;
            }

            .cls-3 {
                fill: #231f20;
            }

            .cls-1:nth-child(3n) {
                animation-delay: 1s;
            }

            .cls-1:nth-child(4n) {
                animation-delay: 1.3s;
            }

            .cls-1:nth-child(5n) {
                animation-delay: 1.3s;
            }

            @keyframes kedip {
                0% {
                    opacity: 0;
                }

                35% {
                    opacity: 1;
                }

                100% {
                    opacity: 0;
                }
            }

            @keyframes kursor {
                0% {
                    opacity: 0;
                }

                50% {
                    opacity: 1;
                }

                100% {
                    opacity: 0;
                }
            }
        </style>
    </defs>
    <title>hello</title>
    <path class="cls-1"
        d="M41.72,111.89h0a.76.76,0,0,1-.49-.14l-.32-.22v-.41c0-3.75-.78-6.56-2.32-8.35A5.83,5.83,0,0,0,34,100.71h-.35l-.23-.27a.81.81,0,0,1-.18-.57.8.8,0,0,1,.18-.56l.23-.27H34c4.29,0,6.85-3.89,6.85-10.41v-.4L41.2,88a.82.82,0,0,1,.49-.13.74.74,0,0,1,.48.13l.33.23v.41C42.5,98.29,47.74,99,49.35,99h.35l.23.27a.76.76,0,0,1,.18.56.77.77,0,0,1-.18.57l-.23.27h-.35c-4.35,0-6.85,3.8-6.85,10.41v.4l-.33.23A.73.73,0,0,1,41.72,111.89Zm-4.53-12a8.44,8.44,0,0,1,4.49,5.65,10.15,10.15,0,0,1,2-3.76,7.23,7.23,0,0,1,2.52-1.91,8.77,8.77,0,0,1-4.45-5.69A8.41,8.41,0,0,1,37.19,99.87Z" />
    <path class="cls-1"
        d="M218.23,53.2h0a.82.82,0,0,1-.48-.14l-.33-.23v-.4c0-3.76-.78-6.57-2.32-8.36A5.83,5.83,0,0,0,210.53,42h-.35l-.23-.27a.77.77,0,0,1-.18-.56.81.81,0,0,1,.18-.57l.23-.27h.35c4.29,0,6.85-3.89,6.85-10.41v-.4l.33-.23a.75.75,0,0,1,.48-.14.76.76,0,0,1,.49.14l.32.22v.41c0,9.66,5.24,10.41,6.85,10.41h.35l.23.27a.81.81,0,0,1,.18.57.77.77,0,0,1-.18.56l-.23.27h-.35c-4.36,0-6.85,3.8-6.85,10.42v.39l-.33.24A.8.8,0,0,1,218.23,53.2Zm-4.53-12a8.39,8.39,0,0,1,4.49,5.64,10.08,10.08,0,0,1,1.95-3.76,7.36,7.36,0,0,1,2.52-1.91,8.72,8.72,0,0,1-4.45-5.69A8.43,8.43,0,0,1,213.7,41.18Z" />
    <path class="cls-1"
        d="M132.93,106.18h0a.76.76,0,0,1-.49-.14l-.32-.23v-.4c0-3.75-.78-6.56-2.32-8.35A5.83,5.83,0,0,0,125.23,95h-.36l-.23-.27a.81.81,0,0,1-.18-.57.77.77,0,0,1,.18-.56l.23-.27h.36c4.28,0,6.84-3.89,6.84-10.41v-.4l.33-.23a.76.76,0,0,1,.49-.14.75.75,0,0,1,.48.14l.33.23v.4c0,9.66,5.24,10.41,6.85,10.41h.35l.23.28a.7.7,0,0,1,.18.56.73.73,0,0,1-.18.57l-.22.27h-.36c-4.35,0-6.85,3.79-6.85,10.41v.4l-.33.23A.77.77,0,0,1,132.93,106.18Zm-4.54-12a8.41,8.41,0,0,1,4.49,5.65,10.14,10.14,0,0,1,2-3.77,7.2,7.2,0,0,1,2.51-1.9,8.77,8.77,0,0,1-4.45-5.69A8.39,8.39,0,0,1,128.39,94.16Z" />
    <path class="cls-1"
        d="M183.33,80.75h0a.78.78,0,0,1-.49-.14l-.32-.23V80c0-3.75-.79-6.56-2.33-8.35a5.81,5.81,0,0,0-4.52-2.06h-.36L175,69.3a.81.81,0,0,1-.18-.57.77.77,0,0,1,.18-.56l.23-.27h.36c4.29,0,6.85-3.89,6.85-10.41v-.39l.32-.24a.78.78,0,0,1,.49-.14.75.75,0,0,1,.48.14l.33.23v.4c0,9.66,5.24,10.41,6.85,10.41h.35l.24.28a.77.77,0,0,1,.18.56.81.81,0,0,1-.18.57l-.23.27H191c-4.35,0-6.85,3.79-6.85,10.41v.4l-.33.23A.77.77,0,0,1,183.33,80.75Zm-4.54-12a8.41,8.41,0,0,1,4.49,5.65,10.14,10.14,0,0,1,2-3.77,7.2,7.2,0,0,1,2.51-1.9A8.77,8.77,0,0,1,183.3,63,8.39,8.39,0,0,1,178.79,68.73Z" />
    <path class="cls-1"
        d="M171.4,117.54h0a.75.75,0,0,1-.48-.14l-.33-.23v-.4c0-3.76-.78-6.56-2.32-8.35a5.8,5.8,0,0,0-4.53-2.06h-.35l-.23-.28a.7.7,0,0,1-.18-.56.73.73,0,0,1,.18-.57l.22-.27h.36c4.29,0,6.85-3.89,6.85-10.41v-.4l.33-.23a.75.75,0,0,1,.48-.14.78.78,0,0,1,.49.14l.32.23v.4c0,9.66,5.24,10.41,6.84,10.41h.36l.23.27a.81.81,0,0,1,.18.57.77.77,0,0,1-.18.56l-.23.27H179c-4.35,0-6.84,3.79-6.84,10.41v.4l-.33.23A.8.8,0,0,1,171.4,117.54Zm-4.54-12a8.37,8.37,0,0,1,4.5,5.64,10,10,0,0,1,1.95-3.76,7.3,7.3,0,0,1,2.52-1.91,8.69,8.69,0,0,1-4.45-5.68A8.45,8.45,0,0,1,166.86,105.52Z" />
    <path class="cls-1"
        d="M18.1,44.84h0a.75.75,0,0,1-.48-.14l-.33-.22v-.41c0-3.75-.78-6.56-2.32-8.35a5.83,5.83,0,0,0-4.53-2.06h-.35l-.23-.27a.77.77,0,0,1-.18-.57.73.73,0,0,1,.18-.56l.23-.27h.35c4.29,0,6.85-3.9,6.85-10.42v-.39l.33-.24a.74.74,0,0,1,.48-.13.76.76,0,0,1,.49.13l.32.23v.4c0,9.67,5.24,10.42,6.85,10.42h.35l.23.27a.77.77,0,0,1,.18.56.81.81,0,0,1-.18.57l-.23.27h-.35c-4.36,0-6.85,3.8-6.85,10.41v.4l-.33.23A.73.73,0,0,1,18.1,44.84Zm-4.54-12a8.42,8.42,0,0,1,4.5,5.65,9.86,9.86,0,0,1,2-3.76,7.23,7.23,0,0,1,2.52-1.91,8.77,8.77,0,0,1-4.45-5.69A8.4,8.4,0,0,1,13.56,32.82Z" />
    <path class="cls-1"
        d="M22,90.17h0a.75.75,0,0,1-.48-.14l-.33-.22V89.4c0-3.75-.78-6.56-2.32-8.35A5.83,5.83,0,0,0,14.33,79H14l-.23-.27a.73.73,0,0,1-.18-.57.7.7,0,0,1,.18-.56l.23-.27h.35c4.29,0,6.85-3.9,6.85-10.42v-.39l.33-.24a.75.75,0,0,1,.48-.14.83.83,0,0,1,.49.14l.32.23v.4c0,9.66,5.24,10.42,6.84,10.42H30l.23.27a.77.77,0,0,1,.18.56.81.81,0,0,1-.18.57L30,79h-.36c-4.35,0-6.84,3.8-6.84,10.41v.4l-.33.23A.73.73,0,0,1,22,90.17Zm-4.54-12A8.39,8.39,0,0,1,22,83.8a10,10,0,0,1,2-3.77,7.32,7.32,0,0,1,2.52-1.9A8.74,8.74,0,0,1,22,72.44,8.42,8.42,0,0,1,17.49,78.15Z" />
    <path class="cls-1"
        d="M509.74,62.43h0a.74.74,0,0,1-.48-.13l-.33-.23v-.4c0-3.76-.78-6.57-2.32-8.36A5.83,5.83,0,0,0,502,51.24h-.35l-.23-.27a.7.7,0,0,1-.18-.56.73.73,0,0,1,.18-.57l.23-.27H502c4.29,0,6.85-3.89,6.85-10.41v-.4l.33-.23a.75.75,0,0,1,.48-.14.76.76,0,0,1,.49.14l.32.22v.41c0,9.66,5.24,10.41,6.84,10.41h.36l.23.27a.81.81,0,0,1,.18.57A.79.79,0,0,1,518,51l-.23.27h-.36c-4.35,0-6.84,3.8-6.84,10.42v.39l-.33.24A.8.8,0,0,1,509.74,62.43Zm-4.54-12a8.37,8.37,0,0,1,4.5,5.64,9.94,9.94,0,0,1,1.95-3.76,7.36,7.36,0,0,1,2.52-1.91,8.69,8.69,0,0,1-4.45-5.69A8.47,8.47,0,0,1,505.2,50.41Z" />
    <path class="cls-1"
        d="M422.31,29.75h0a.75.75,0,0,1-.48-.14l-.33-.23V29c0-3.75-.78-6.56-2.33-8.35a5.81,5.81,0,0,0-4.52-2.06h-.36L414,18.3a.81.81,0,0,1-.18-.57.77.77,0,0,1,.18-.56l.23-.28h.36c4.29,0,6.85-3.89,6.85-10.41v-.4l.33-.23a.89.89,0,0,1,1,0l.33.23v.4c0,9.66,5.25,10.41,6.85,10.41h.36l.23.28a.77.77,0,0,1,.18.56.81.81,0,0,1-.18.57l-.23.27h-.36c-4.35,0-6.85,3.79-6.85,10.41v.4l-.33.23A.77.77,0,0,1,422.31,29.75Zm-4.54-12a8.4,8.4,0,0,1,4.5,5.64,10,10,0,0,1,2-3.76,7.14,7.14,0,0,1,2.52-1.9A8.71,8.71,0,0,1,422.29,12,8.42,8.42,0,0,1,417.77,17.73Z" />
    <path class="cls-1"
        d="M571.56,104.12h0A.76.76,0,0,1,571,104l-.32-.23v-.4c0-3.75-.78-6.56-2.32-8.35a5.83,5.83,0,0,0-4.53-2.06h-.35l-.23-.27a.81.81,0,0,1-.18-.57.77.77,0,0,1,.18-.56l.23-.28h.35c4.29,0,6.85-3.89,6.85-10.41v-.4l.33-.23a.76.76,0,0,1,.49-.14.75.75,0,0,1,.48.14l.33.23v.4c0,9.66,5.24,10.41,6.85,10.41h.35l.23.28a.73.73,0,0,1,.18.56.77.77,0,0,1-.18.57l-.23.27h-.35c-4.35,0-6.85,3.79-6.85,10.41v.4L572,104A.8.8,0,0,1,571.56,104.12ZM567,92.1a8.41,8.41,0,0,1,4.49,5.64,10.31,10.31,0,0,1,2-3.76,7.32,7.32,0,0,1,2.52-1.9,8.77,8.77,0,0,1-4.45-5.69A8.41,8.41,0,0,1,567,92.1Z" />
    <path class="cls-1"
        d="M368.73,32.79h0a.78.78,0,0,1-.49-.14l-.32-.23V32c0-3.75-.78-6.56-2.32-8.35A5.78,5.78,0,0,0,361,21.61h-.36l-.23-.27a1,1,0,0,1,0-1.14l.23-.27H361c4.28,0,6.84-3.89,6.84-10.41v-.4l.33-.23a.78.78,0,0,1,.49-.14.75.75,0,0,1,.48.14l.33.23v.4c0,9.66,5.24,10.41,6.85,10.41h.35l.23.27a.78.78,0,0,1,.19.57.74.74,0,0,1-.19.56l-.22.28h-.36c-4.35,0-6.85,3.79-6.85,10.41v.4l-.33.23A.77.77,0,0,1,368.73,32.79Zm-4.54-12a8.41,8.41,0,0,1,4.49,5.64,10.17,10.17,0,0,1,2-3.76,7.2,7.2,0,0,1,2.51-1.9,8.77,8.77,0,0,1-4.45-5.69A8.39,8.39,0,0,1,364.19,20.77Z" />
    <path class="cls-1"
        d="M218.23,107.91h0a.74.74,0,0,1-.48-.13l-.33-.23v-.4c0-3.76-.78-6.57-2.32-8.36a5.83,5.83,0,0,0-4.53-2.06h-.35l-.23-.27a.77.77,0,0,1-.18-.56.81.81,0,0,1,.18-.57l.23-.27h.35c4.29,0,6.85-3.89,6.85-10.41v-.4l.33-.23a.75.75,0,0,1,.48-.14.76.76,0,0,1,.49.14l.32.22v.41c0,9.66,5.24,10.41,6.85,10.41h.35l.23.27a.81.81,0,0,1,.18.57.79.79,0,0,1-.18.56l-.23.27h-.35c-4.36,0-6.85,3.8-6.85,10.42v.39l-.33.24A.8.8,0,0,1,218.23,107.91Zm-4.53-12a8.39,8.39,0,0,1,4.49,5.64,10.08,10.08,0,0,1,1.95-3.76,7.36,7.36,0,0,1,2.52-1.91,8.75,8.75,0,0,1-4.45-5.69A8.46,8.46,0,0,1,213.7,95.89Z" />
    <path class="cls-1"
        d="M163,44.81h0a.75.75,0,0,1-.48-.14l-.33-.23V44c0-3.75-.78-6.56-2.32-8.35a5.8,5.8,0,0,0-4.53-2.06h-.35l-.23-.28a.77.77,0,0,1-.18-.56.81.81,0,0,1,.18-.57l.23-.27h.35c4.29,0,6.85-3.89,6.85-10.41v-.4l.33-.23a.75.75,0,0,1,.48-.14.76.76,0,0,1,.49.14l.32.23v.4C163.75,31.2,169,32,170.6,32H171l.23.27a.81.81,0,0,1,.18.57.77.77,0,0,1-.18.56l-.23.27h-.35c-4.36,0-6.85,3.79-6.85,10.41v.4l-.33.23A.8.8,0,0,1,163,44.81Zm-4.53-12a8.41,8.41,0,0,1,4.49,5.64,10.16,10.16,0,0,1,1.95-3.76,7.32,7.32,0,0,1,2.52-1.9A8.77,8.77,0,0,1,163,27.08,8.41,8.41,0,0,1,158.44,32.79Z" />
    <path class="cls-1"
        d="M62.08,39.2h0a.75.75,0,0,1-.48-.14l-.33-.23v-.4c0-3.75-.78-6.56-2.32-8.35A5.8,5.8,0,0,0,54.38,28H54l-.23-.27a1,1,0,0,1,0-1.14l.22-.27h.36c4.29,0,6.85-3.89,6.85-10.41v-.4l.33-.23a.75.75,0,0,1,.48-.14.78.78,0,0,1,.49.14l.32.23v.4c0,9.66,5.24,10.41,6.84,10.41h.36l.23.27a1,1,0,0,1,0,1.14l-.23.27H69.7c-4.35,0-6.84,3.79-6.84,10.41v.4l-.33.23A.82.82,0,0,1,62.08,39.2Zm-4.54-12A8.4,8.4,0,0,1,62,32.82a10,10,0,0,1,2-3.76,7.14,7.14,0,0,1,2.52-1.9,8.71,8.71,0,0,1-4.45-5.69A8.42,8.42,0,0,1,57.54,27.18Z" />
    <path class="cls-1"
        d="M269.74,109.83h0a.75.75,0,0,1-.48-.14l-.33-.22v-.41c0-3.75-.78-6.56-2.32-8.35A5.83,5.83,0,0,0,262,98.65h-.35l-.23-.27a.78.78,0,0,1-.19-.57.74.74,0,0,1,.19-.56l.22-.27H262c4.29,0,6.85-3.9,6.85-10.42v-.39l.33-.24a.74.74,0,0,1,.48-.13.77.77,0,0,1,.49.13l.32.23v.4c0,9.67,5.25,10.42,6.85,10.42h.36l.23.27a.79.79,0,0,1,.18.56.81.81,0,0,1-.18.57l-.23.27h-.36c-4.35,0-6.85,3.8-6.85,10.41v.4l-.32.23A.75.75,0,0,1,269.74,109.83Zm-4.54-12a8.42,8.42,0,0,1,4.5,5.65,9.86,9.86,0,0,1,1.95-3.76,7.06,7.06,0,0,1,2.52-1.91,8.71,8.71,0,0,1-4.45-5.69A8.42,8.42,0,0,1,265.2,97.81Z" />
    <path class="cls-1"
        d="M112.53,39.2h0a.78.78,0,0,1-.49-.14l-.32-.23v-.4c0-3.75-.79-6.56-2.33-8.35A5.78,5.78,0,0,0,104.83,28h-.36l-.23-.27a1,1,0,0,1,0-1.14l.23-.27h.36c4.28,0,6.85-3.89,6.85-10.41v-.4l.32-.23a.78.78,0,0,1,.49-.14.75.75,0,0,1,.48.14l.33.23v.4c0,9.66,5.24,10.41,6.85,10.41h.35l.23.27a.95.95,0,0,1,0,1.14l-.22.27h-.36c-4.35,0-6.85,3.79-6.85,10.41v.4l-.33.23A.77.77,0,0,1,112.53,39.2Zm-4.54-12a8.41,8.41,0,0,1,4.49,5.64,10.17,10.17,0,0,1,2-3.76,7.2,7.2,0,0,1,2.51-1.9,8.77,8.77,0,0,1-4.45-5.69A8.39,8.39,0,0,1,108,27.18Z" />
    <path class="cls-1"
        d="M332.94,44.84h0a.75.75,0,0,1-.48-.14l-.33-.22v-.41c0-3.75-.78-6.56-2.32-8.35a5.85,5.85,0,0,0-4.53-2.06h-.36l-.23-.27a.81.81,0,0,1-.18-.57.77.77,0,0,1,.18-.56l.23-.27h.36c4.29,0,6.85-3.9,6.85-10.42v-.39l.33-.24a1,1,0,0,1,1,0l.33.23v.4c0,9.67,5.25,10.42,6.85,10.42h.36l.23.27a.77.77,0,0,1,.18.56.81.81,0,0,1-.18.57l-.23.27h-.36c-4.35,0-6.85,3.8-6.85,10.41v.4l-.33.23A.7.7,0,0,1,332.94,44.84Zm-4.54-12a8.42,8.42,0,0,1,4.5,5.65,9.86,9.86,0,0,1,2-3.76,7.06,7.06,0,0,1,2.52-1.91,8.71,8.71,0,0,1-4.45-5.69A8.42,8.42,0,0,1,328.4,32.82Z" />
    <path class="cls-1"
        d="M261.31,35.46h0a.75.75,0,0,1-.48-.14l-.33-.22v-.41c0-3.75-.78-6.56-2.32-8.35a5.83,5.83,0,0,0-4.53-2.06h-.35L253,24a.73.73,0,0,1-.18-.57.7.7,0,0,1,.18-.56l.23-.27h.35c4.29,0,6.85-3.9,6.85-10.42V11.8l.33-.24a.74.74,0,0,1,.48-.13.76.76,0,0,1,.49.13l.32.23v.4c0,9.67,5.24,10.42,6.84,10.42h.36l.23.27a.79.79,0,0,1,.18.56.81.81,0,0,1-.18.57l-.23.27h-.36c-4.35,0-6.84,3.8-6.84,10.41v.4l-.33.23A.73.73,0,0,1,261.31,35.46Zm-4.54-12a8.42,8.42,0,0,1,4.5,5.65,9.86,9.86,0,0,1,2-3.76,7.23,7.23,0,0,1,2.52-1.91,8.74,8.74,0,0,1-4.45-5.69A8.42,8.42,0,0,1,256.77,23.44Z" />
    <path class="cls-1"
        d="M337.4,118.2h0a.76.76,0,0,1-.49-.14l-.32-.23v-.4c0-3.75-.78-6.56-2.32-8.35A5.83,5.83,0,0,0,329.7,107h-.35l-.23-.27a.81.81,0,0,1-.18-.57.77.77,0,0,1,.18-.56l.23-.27h.35c4.29,0,6.85-3.89,6.85-10.41v-.4l.33-.23a.76.76,0,0,1,.49-.14.75.75,0,0,1,.48.14l.33.23v.4c0,9.66,5.24,10.41,6.85,10.41h.35l.23.28a.7.7,0,0,1,.18.56.73.73,0,0,1-.18.57l-.22.27H345c-4.35,0-6.85,3.79-6.85,10.41v.4l-.33.23A.8.8,0,0,1,337.4,118.2Zm-4.53-12a8.41,8.41,0,0,1,4.49,5.64,10.31,10.31,0,0,1,1.95-3.76,7.32,7.32,0,0,1,2.52-1.9,8.77,8.77,0,0,1-4.45-5.69A8.41,8.41,0,0,1,332.87,106.18Z" />
    <path class="cls-1"
        d="M364.26,86.46h0a.81.81,0,0,1-.48-.13l-.33-.23v-.41c0-3.75-.78-6.56-2.32-8.35a5.83,5.83,0,0,0-4.53-2.06h-.35L356,75a.77.77,0,0,1-.19-.56.78.78,0,0,1,.19-.57l.22-.27h.36c4.29,0,6.85-3.89,6.85-10.41v-.4l.33-.23a.75.75,0,0,1,.48-.14.84.84,0,0,1,.49.13l.32.23v.41c0,9.66,5.25,10.41,6.85,10.41h.36l.23.27a.81.81,0,0,1,.18.57.8.8,0,0,1-.18.56l-.23.27h-.36c-4.35,0-6.85,3.8-6.85,10.41v.4l-.32.24A.81.81,0,0,1,364.26,86.46Zm-4.54-12a8.42,8.42,0,0,1,4.5,5.65,9.86,9.86,0,0,1,1.95-3.76,7.06,7.06,0,0,1,2.52-1.91,8.71,8.71,0,0,1-4.45-5.69A8.42,8.42,0,0,1,359.72,74.44Z" />
    <path class="cls-1"
        d="M430.74,107.87h0a.78.78,0,0,1-.49-.14l-.32-.23v-.4c0-3.75-.79-6.56-2.33-8.35A5.81,5.81,0,0,0,423,96.69h-.36l-.23-.27a.81.81,0,0,1-.18-.57.77.77,0,0,1,.18-.56l.23-.27H423c4.29,0,6.85-3.89,6.85-10.41v-.4l.32-.23a.78.78,0,0,1,.49-.14.75.75,0,0,1,.48.14l.33.23v.4c0,9.66,5.24,10.41,6.85,10.41h.35l.24.28a.77.77,0,0,1,.18.56.81.81,0,0,1-.18.57l-.23.27h-.36c-4.35,0-6.85,3.79-6.85,10.41v.4l-.33.23A.77.77,0,0,1,430.74,107.87Zm-4.54-12a8.39,8.39,0,0,1,4.49,5.64,10.17,10.17,0,0,1,2-3.76,7.14,7.14,0,0,1,2.52-1.9,8.75,8.75,0,0,1-4.46-5.69A8.39,8.39,0,0,1,426.2,95.85Z" />
    <path class="cls-1"
        d="M445.8,58.84h0a.78.78,0,0,1-.49-.14l-.32-.23v-.4c0-3.75-.78-6.56-2.32-8.35a5.81,5.81,0,0,0-4.52-2.06h-.36l-.23-.27a1,1,0,0,1,0-1.14l.23-.27h.36c4.28,0,6.84-3.89,6.84-10.41v-.4l.33-.23a.78.78,0,0,1,.49-.14.75.75,0,0,1,.48.14l.33.23v.4c0,9.66,5.24,10.41,6.85,10.41h.35l.23.28a.7.7,0,0,1,.18.56.73.73,0,0,1-.18.57l-.22.27h-.36c-4.35,0-6.85,3.79-6.85,10.41v.4l-.33.23A.77.77,0,0,1,445.8,58.84Zm-4.54-12a8.41,8.41,0,0,1,4.49,5.64,10.17,10.17,0,0,1,2-3.76,7.2,7.2,0,0,1,2.51-1.9,8.77,8.77,0,0,1-4.45-5.69A8.39,8.39,0,0,1,441.26,46.82Z" />
    <path class="cls-1"
        d="M525.33,104.12h0a.76.76,0,0,1-.49-.14l-.32-.23v-.4c0-3.75-.78-6.56-2.32-8.35a5.83,5.83,0,0,0-4.52-2.06h-.36l-.23-.27a.81.81,0,0,1-.18-.57.77.77,0,0,1,.18-.56l.23-.28h.36c4.28,0,6.84-3.89,6.84-10.41v-.4l.33-.23a.76.76,0,0,1,.49-.14.75.75,0,0,1,.48.14l.33.23v.4c0,9.66,5.24,10.41,6.85,10.41h.35l.23.28a.7.7,0,0,1,.18.56.73.73,0,0,1-.18.57l-.22.27H533c-4.35,0-6.85,3.79-6.85,10.41v.4l-.33.23A.77.77,0,0,1,525.33,104.12Zm-4.54-12a8.41,8.41,0,0,1,4.49,5.64,10.17,10.17,0,0,1,2-3.76,7.2,7.2,0,0,1,2.51-1.9,8.77,8.77,0,0,1-4.45-5.69A8.39,8.39,0,0,1,520.79,92.1Z" />
    <path class="cls-1"
        d="M546.6,41.18h0a.82.82,0,0,1-.48-.14l-.33-.23v-.4c0-3.76-.78-6.57-2.32-8.35A5.81,5.81,0,0,0,538.9,30h-.35l-.23-.27a.74.74,0,0,1-.19-.56.78.78,0,0,1,.19-.57l.22-.27h.36c4.29,0,6.85-3.89,6.85-10.41v-.4l.33-.23a.75.75,0,0,1,.48-.14.78.78,0,0,1,.49.14l.32.22v.41c0,9.66,5.25,10.41,6.85,10.41h.36l.23.27a.81.81,0,0,1,.18.57.77.77,0,0,1-.18.56l-.23.27h-.36c-4.35,0-6.85,3.8-6.85,10.42v.39l-.32.24A.82.82,0,0,1,546.6,41.18Zm-4.54-12a8.37,8.37,0,0,1,4.5,5.64,9.94,9.94,0,0,1,2-3.76A7.17,7.17,0,0,1,551,29.13a8.66,8.66,0,0,1-4.45-5.69C545.6,26.77,543.76,28.39,542.06,29.16Z" />
    <path class="cls-1"
        d="M486.26,104.09h0a.77.77,0,0,1-.49-.13l-.32-.23v-.4c0-3.76-.79-6.57-2.33-8.36a5.81,5.81,0,0,0-4.52-2.06h-.36l-.23-.27a.77.77,0,0,1-.18-.56.81.81,0,0,1,.18-.57l.23-.27h.36c4.29,0,6.85-3.89,6.85-10.41v-.4l.32-.23a.78.78,0,0,1,.49-.14.75.75,0,0,1,.48.14l.33.22v.41c0,9.66,5.24,10.41,6.85,10.41h.35l.24.27a.81.81,0,0,1,.18.57.77.77,0,0,1-.18.56l-.23.27h-.36c-4.35,0-6.85,3.8-6.85,10.42v.39l-.33.24A.77.77,0,0,1,486.26,104.09Zm-4.54-12a8.34,8.34,0,0,1,4.49,5.64,10.09,10.09,0,0,1,2-3.76A7.17,7.17,0,0,1,490.69,92a8.66,8.66,0,0,1-4.45-5.69A8.47,8.47,0,0,1,481.72,92.07Z" />
    <path class="cls-1"
        d="M472.88,41.18h0a.82.82,0,0,1-.48-.14l-.33-.23v-.4c0-3.76-.78-6.57-2.32-8.35A5.81,5.81,0,0,0,465.18,30h-.35l-.23-.27a.77.77,0,0,1-.18-.56.81.81,0,0,1,.18-.57l.23-.27h.35c4.29,0,6.85-3.89,6.85-10.41v-.4l.33-.23a.75.75,0,0,1,.48-.14.76.76,0,0,1,.49.14l.32.22v.41c0,9.66,5.24,10.41,6.85,10.41h.35l.23.27a.81.81,0,0,1,.18.57.77.77,0,0,1-.18.56l-.23.27h-.35c-4.36,0-6.85,3.8-6.85,10.42v.39l-.33.24A.8.8,0,0,1,472.88,41.18Zm-4.53-12a8.39,8.39,0,0,1,4.49,5.64,10.08,10.08,0,0,1,2-3.76,7.36,7.36,0,0,1,2.52-1.91,8.72,8.72,0,0,1-4.45-5.69A8.43,8.43,0,0,1,468.35,29.16Z" />
    <path class="cls-1"
        d="M291.25,74.44h0a.77.77,0,0,1-.49-.13l-.32-.23v-.4c0-3.76-.78-6.57-2.32-8.36a5.81,5.81,0,0,0-4.52-2.06h-.36L283,63a.79.79,0,0,1-.18-.56.81.81,0,0,1,.18-.57l.23-.27h.36c4.28,0,6.84-3.89,6.84-10.41v-.4l.33-.23a.78.78,0,0,1,.49-.14.75.75,0,0,1,.48.14l.33.22v.41c0,9.66,5.24,10.41,6.85,10.41h.35l.23.27a.78.78,0,0,1,.19.57.77.77,0,0,1-.19.56l-.22.27h-.36c-4.35,0-6.85,3.8-6.85,10.42v.39l-.33.24A.76.76,0,0,1,291.25,74.44Zm-4.54-12a8.39,8.39,0,0,1,4.49,5.64,10.09,10.09,0,0,1,2-3.76,7.11,7.11,0,0,1,2.51-1.91,8.75,8.75,0,0,1-4.45-5.69A8.43,8.43,0,0,1,286.71,62.43Z" />
    <path class="cls-1"
        d="M399.17,56.86h0a.78.78,0,0,1-.49-.14l-.32-.22v-.41c0-3.75-.78-6.56-2.32-8.35a5.81,5.81,0,0,0-4.52-2.06h-.36l-.23-.27a.81.81,0,0,1-.18-.57.77.77,0,0,1,.18-.56l.23-.27h.36c4.28,0,6.84-3.9,6.84-10.42V33.2l.33-.24a.85.85,0,0,1,.49-.14.82.82,0,0,1,.48.14l.33.23v.4c0,9.67,5.24,10.42,6.85,10.42h.35l.23.27a.7.7,0,0,1,.18.56.73.73,0,0,1-.18.57l-.22.27h-.36c-4.35,0-6.85,3.8-6.85,10.41v.4l-.33.23A.7.7,0,0,1,399.17,56.86Zm-4.54-12a8.41,8.41,0,0,1,4.49,5.65,10,10,0,0,1,2-3.76,7.11,7.11,0,0,1,2.51-1.91,8.77,8.77,0,0,1-4.45-5.69A8.39,8.39,0,0,1,394.63,44.84Z" />
    <path class="cls-2"
        d="M48.16,56.35h-2a1,1,0,0,0-1,1v3.42H41.62V57.35a1,1,0,0,0-1-1h-2a1,1,0,0,0-1,1V68.07a1,1,0,0,0,1,1h2a1,1,0,0,0,1-1v-3.6h3.54v3.6a1,1,0,0,0,1,1h2a1,1,0,0,0,1-1V57.35A1,1,0,0,0,48.16,56.35Z" />
    <path class="cls-2"
        d="M62.29,55.7H60.38a1,1,0,0,0-1,1v5.91a4.92,4.92,0,0,0-.49-1.28A4.8,4.8,0,0,0,57,59.45a5.66,5.66,0,0,0-5.29,0,4.92,4.92,0,0,0-1.89,1.87,5.54,5.54,0,0,0,0,5.32,4.94,4.94,0,0,0,2,1.88,6.51,6.51,0,0,0,5.11.24,4.63,4.63,0,0,0,1.79-1.28,1,1,0,0,0,0-1.3l-.51-.6h.28a1,1,0,0,0,.87-.52v3a1,1,0,0,0,1,1h1.91a1,1,0,0,0,1-1V56.7A1,1,0,0,0,62.29,55.7Z" />
    <path class="cls-2"
        d="M81.18,65.28a2.32,2.32,0,0,0-3-.12A5.69,5.69,0,0,0,78.27,64a5.23,5.23,0,0,0-.69-2.67,5,5,0,0,0-1.94-1.86,6,6,0,0,0-5.44,0,4.89,4.89,0,0,0-1.94,1.86,4.83,4.83,0,0,0-.54,1.33V56.7a1,1,0,0,0-1-1H64.81a1,1,0,0,0-1,1V68.07a1,1,0,0,0,1,1h1.91a1,1,0,0,0,1-1V65.32a5.14,5.14,0,0,0,.53,1.33,4.88,4.88,0,0,0,2,1.87,5.93,5.93,0,0,0,5.44,0A5,5,0,0,0,77.36,67a2.19,2.19,0,0,0,.34,1.16,1.7,1.7,0,0,0,.23.3l-.44,1.69a1,1,0,0,0,1,1.25H79.7a1,1,0,0,0,.94-.66l.76-2.13a7.33,7.33,0,0,0,.33-.92,2.94,2.94,0,0,0,.1-.76,2.21,2.21,0,0,0-.65-1.63Zm-7.24-.15h0a1.5,1.5,0,0,1-2,0,1.88,1.88,0,0,1,0-2.32,1.33,1.33,0,0,1,1-.4,1.37,1.37,0,0,1,1,.4,1.55,1.55,0,0,1,.4,1.16A1.51,1.51,0,0,1,73.94,65.13Z" />
    <rect class="cls-2" x="86.11" y="56.35" width="3.99" height="12.72" rx="1" />
    <path class="cls-2"
        d="M94.68,57.85A2.23,2.23,0,0,0,94,56.24a2.35,2.35,0,0,0-3.2,0,2.23,2.23,0,0,0-.64,1.61,2.28,2.28,0,0,0,.35,1.25,1.7,1.7,0,0,0,.23.3l-.44,1.69a1,1,0,0,0,.18.87,1,1,0,0,0,.79.38h1.24a1,1,0,0,0,.94-.65l.79-2.16a9.23,9.23,0,0,0,.3-.89A3,3,0,0,0,94.68,57.85Z" />
    <path class="cls-2"
        d="M109,60a4.35,4.35,0,0,0-3.16-1.18,5.2,5.2,0,0,0-2.17.45,4.81,4.81,0,0,0-.83.47,4.37,4.37,0,0,0-.75-.48,5.11,5.11,0,0,0-4-.07l0,0a1,1,0,0,0-.71-.3H95.55a1,1,0,0,0-1,1v8.18a1,1,0,0,0,1,1h1.91a1,1,0,0,0,1-1V63.92a1.68,1.68,0,0,1,.32-1.15,1,1,0,0,1,.81-.3c.44,0,.57.14.61.2a1.53,1.53,0,0,1,.23,1v4.44a1,1,0,0,0,1,1h1.92a1,1,0,0,0,1-1V63.92a1.62,1.62,0,0,1,.32-1.14,1,1,0,0,1,.81-.31c.43,0,.56.14.61.2a1.61,1.61,0,0,1,.22,1v4.44a1,1,0,0,0,1,1h1.92a1,1,0,0,0,1-1V63.38A4.63,4.63,0,0,0,109,60Z" />
    <path class="cls-2"
        d="M131.69,58.8a5.65,5.65,0,0,0-1.73.26V56.7a1,1,0,0,0-1-1H127a1,1,0,0,0-1,1v1.61a5.76,5.76,0,0,0-2.18-1.58,7.4,7.4,0,0,0-6.2.3,6.29,6.29,0,0,0-2.44,2.33,6.76,6.76,0,0,0,0,6.69,6.22,6.22,0,0,0,2.43,2.34h0a7.11,7.11,0,0,0,3.41.83,7.31,7.31,0,0,0,2.8-.53A6,6,0,0,0,126,67.11v1a1,1,0,0,0,1,1H129a1,1,0,0,0,1-1V63.93a1.61,1.61,0,0,1,.33-1.13,1.2,1.2,0,0,1,1-.33.89.89,0,0,1,.71.22,1.47,1.47,0,0,1,.24.94v4.44a1,1,0,0,0,1,1h1.91a1,1,0,0,0,1-1V63.38a4.55,4.55,0,0,0-1.24-3.4A4.41,4.41,0,0,0,131.69,58.8Zm-5.65,7s0,0,0-.05l-1.28-1.23a1,1,0,0,0-.73-.27.94.94,0,0,0-.7.32,2.74,2.74,0,0,1-2.13,1,3,3,0,0,1-1.49-.36,2.58,2.58,0,0,1-1-1,3.1,3.1,0,0,1,0-2.9,2.51,2.51,0,0,1,1-1,3,3,0,0,1,1.49-.36,2.76,2.76,0,0,1,2.13.94,1,1,0,0,0,.7.32,1,1,0,0,0,.72-.28L126,59.71s0,0,0-.06Z" />
    <path class="cls-2"
        d="M154.83,63.61a3.63,3.63,0,0,0-1-.71,1,1,0,0,0,.57-.49l.74-1.46a1,1,0,0,0-.38-1.31,5.89,5.89,0,0,0-1.67-.63,8.87,8.87,0,0,0-1.91-.21,5.39,5.39,0,0,0-3.21.88,3.26,3.26,0,0,0-1.21,1.65V59.89a1,1,0,0,0-.5-.86l.14-.13a2.15,2.15,0,0,0,.63-1.55,2,2,0,0,0-.68-1.54,2.38,2.38,0,0,0-3.1,0,2.13,2.13,0,0,0,0,3.1h0l.09.08a1.16,1.16,0,0,0-.28.26,1,1,0,0,0-.84-.48,5.37,5.37,0,0,0-2.18.4,1,1,0,0,0-.73-.31h-1.82a1,1,0,0,0-1,1v8.18a1,1,0,0,0,1,1h1.91a1,1,0,0,0,1-1v-4a1.68,1.68,0,0,1,.35-1.18,1.25,1.25,0,0,1,1-.35l.26,0a1,1,0,0,0,.8-.2v5.67a1,1,0,0,0,1,1h1.92a1,1,0,0,0,1-1h0a6.1,6.1,0,0,0,1.83.8,8.18,8.18,0,0,0,2.21.3,5.65,5.65,0,0,0,3.28-.87,3.15,3.15,0,0,0,1.43-2.66A2.88,2.88,0,0,0,154.83,63.61Zm-7.6,1.74-.42.83v-2.7a2.6,2.6,0,0,0,.56,1,3.55,3.55,0,0,0,.46.41A1,1,0,0,0,147.23,65.35Z" />
    <path class="cls-3" d="M48.16,57.35V68.07h-2v-4.6H40.62v4.6h-2V57.35h2v4.42h5.54V57.35Z" />
    <path class="cls-3"
        d="M58.51,64.59H52.09A2.23,2.23,0,0,0,53,66a2.86,2.86,0,0,0,1.77.53A3,3,0,0,0,57,65.66l1,1.18a3.43,3.43,0,0,1-1.39,1,5.22,5.22,0,0,1-1.9.34,5.06,5.06,0,0,1-2.38-.54,3.85,3.85,0,0,1-1.58-1.49A4.15,4.15,0,0,1,50.18,64a4.29,4.29,0,0,1,.54-2.15,3.89,3.89,0,0,1,1.51-1.5,4.48,4.48,0,0,1,2.18-.53,4.21,4.21,0,0,1,2.13.53A3.67,3.67,0,0,1,58,61.81,4.45,4.45,0,0,1,58.54,64C58.54,64.16,58.53,64.35,58.51,64.59Zm-5.66-2.72a2.32,2.32,0,0,0-.77,1.45h4.64a2.23,2.23,0,0,0-2.31-2A2.31,2.31,0,0,0,52.85,61.87Z" />
    <path class="cls-3" d="M60.38,56.7h1.91V68.07H60.38Z" />
    <path class="cls-3" d="M64.81,56.7h1.91V68.07H64.81Z" />
    <path class="cls-3"
        d="M70.67,67.64a3.9,3.9,0,0,1-1.55-1.49A4.25,4.25,0,0,1,68.56,64a4.19,4.19,0,0,1,.56-2.16,4,4,0,0,1,1.55-1.49,5,5,0,0,1,4.49,0,4.06,4.06,0,0,1,1.56,1.49A4.18,4.18,0,0,1,77.27,64a4.24,4.24,0,0,1-.55,2.17,4,4,0,0,1-1.56,1.49,4.94,4.94,0,0,1-4.49,0Zm4-1.81a2.86,2.86,0,0,0,0-3.7,2.36,2.36,0,0,0-1.75-.71,2.32,2.32,0,0,0-1.74.71,2.86,2.86,0,0,0,0,3.7,2.32,2.32,0,0,0,1.74.71A2.36,2.36,0,0,0,74.66,65.83Z" />
    <path class="cls-3"
        d="M80.48,66a1.25,1.25,0,0,1,.35.92,1.89,1.89,0,0,1-.07.51,8.09,8.09,0,0,1-.28.8l-.78,2.16H78.45L79.07,68a1.09,1.09,0,0,1-.53-.44,1.23,1.23,0,0,1-.19-.69A1.21,1.21,0,0,1,78.7,66a1.18,1.18,0,0,1,.89-.36A1.2,1.2,0,0,1,80.48,66Z" />
    <path class="cls-3" d="M87.11,57.35h2V68.07h-2Z" />
    <path class="cls-3"
        d="M93.33,57a1.22,1.22,0,0,1,.35.9,2,2,0,0,1-.07.54,6.17,6.17,0,0,1-.27.78l-.79,2.17H91.31L91.92,59a1.07,1.07,0,0,1-.53-.43,1.23,1.23,0,0,1-.19-.71,1.22,1.22,0,0,1,.35-.9,1.31,1.31,0,0,1,1.78,0Z" />
    <path class="cls-3"
        d="M108.32,60.69a3.62,3.62,0,0,1,.91,2.69v4.69h-1.92V63.63a2.37,2.37,0,0,0-.47-1.62,1.72,1.72,0,0,0-1.36-.54,2,2,0,0,0-1.55.63,2.6,2.6,0,0,0-.58,1.82v4.15h-1.92V63.63A2.43,2.43,0,0,0,101,62a1.73,1.73,0,0,0-1.37-.54A2,2,0,0,0,98,62.1a2.6,2.6,0,0,0-.58,1.82v4.15H95.55V59.89h1.82v1a2.93,2.93,0,0,1,1.15-.84,3.79,3.79,0,0,1,1.53-.29,3.65,3.65,0,0,1,1.63.34,2.65,2.65,0,0,1,1.13,1,3.41,3.41,0,0,1,1.3-1,4.23,4.23,0,0,1,1.76-.36A3.33,3.33,0,0,1,108.32,60.69Z" />
    <path class="cls-3"
        d="M118.12,67.51a5.18,5.18,0,0,1-2.05-2,5.77,5.77,0,0,1,0-5.67,5.25,5.25,0,0,1,2.06-2,6,6,0,0,1,2.93-.72,6.27,6.27,0,0,1,2.41.46A4.89,4.89,0,0,1,125.31,59L124,60.2a3.75,3.75,0,0,0-2.87-1.26,4,4,0,0,0-2,.48,3.46,3.46,0,0,0-1.37,1.34,4.11,4.11,0,0,0,0,3.89A3.4,3.4,0,0,0,119.19,66a3.92,3.92,0,0,0,2,.49A3.74,3.74,0,0,0,124,65.2l1.28,1.23a4.82,4.82,0,0,1-1.84,1.33,6.14,6.14,0,0,1-2.42.46A6.08,6.08,0,0,1,118.12,67.51Z" />
    <path class="cls-3"
        d="M134.17,60.7a3.58,3.58,0,0,1,.93,2.68v4.69h-1.91V63.63a2.28,2.28,0,0,0-.51-1.62,1.89,1.89,0,0,0-1.44-.54,2.23,2.23,0,0,0-1.67.63,2.55,2.55,0,0,0-.61,1.83v4.14H127V56.7H129v4.14a3,3,0,0,1,1.17-.77,4.29,4.29,0,0,1,1.56-.27A3.44,3.44,0,0,1,134.17,60.7Z" />
    <path class="cls-3"
        d="M142.27,59.8v1.82a2.47,2.47,0,0,0-.44,0,2.3,2.3,0,0,0-1.75.66,2.58,2.58,0,0,0-.63,1.87v4h-1.91V59.89h1.82v1.19A3.2,3.2,0,0,1,142.27,59.8Z" />
    <path class="cls-3"
        d="M144,58.21a1.06,1.06,0,0,1-.36-.82,1.08,1.08,0,0,1,.36-.82,1.21,1.21,0,0,1,.87-.33,1.24,1.24,0,0,1,.87.32,1,1,0,0,1,.35.79,1.16,1.16,0,0,1-.34.85,1.18,1.18,0,0,1-.88.34A1.21,1.21,0,0,1,144,58.21Zm-.1,1.68h1.92v8.18h-1.92Z" />
    <path class="cls-3"
        d="M148.9,67.92a5.09,5.09,0,0,1-1.51-.66l.73-1.46a4.65,4.65,0,0,0,1.33.59,5.37,5.37,0,0,0,1.52.22c1.14,0,1.72-.3,1.72-.9a.61.61,0,0,0-.44-.6,7.61,7.61,0,0,0-1.4-.32,11.56,11.56,0,0,1-1.65-.35,2.53,2.53,0,0,1-1.1-.7,1.94,1.94,0,0,1-.47-1.38,2.21,2.21,0,0,1,1-1.87,4.48,4.48,0,0,1,2.63-.69,7.55,7.55,0,0,1,1.69.19,5,5,0,0,1,1.38.51L153.56,62a4.52,4.52,0,0,0-2.34-.62,2.55,2.55,0,0,0-1.28.26.76.76,0,0,0-.44.66.66.66,0,0,0,.47.65,7,7,0,0,0,1.45.36,11.14,11.14,0,0,1,1.6.36,2.44,2.44,0,0,1,1.08.67,1.9,1.9,0,0,1,.46,1.35,2.14,2.14,0,0,1-1,1.84,4.69,4.69,0,0,1-2.71.69A7.51,7.51,0,0,1,148.9,67.92Z" />
    <rect class="cls-4" x="156.65" y="68.73" width="8.17" height="1.64" />
    <rect class="cls-4" x="156.65" y="68.73" width="8.17" height="1.64" />
</svg>